<svg xmlns="http://www.w3.org/2000/svg" xmlns:xlink="http://www.w3.org/1999/xlink" width="200" height="200" viewBox="0 0 200 200">
  <defs>
    <filter id="Path_2077" x="0" y="0" width="200" height="200" filterUnits="userSpaceOnUse">
      <feOffset dy="16" input="SourceAlpha"/>
      <feGaussianBlur stdDeviation="12" result="blur"/>
      <feFlood flood-opacity="0.161"/>
      <feComposite operator="in" in2="blur"/>
      <feComposite in="SourceGraphic"/>
    </filter>
  </defs>
  <g id="Buttons_Play" data-name="Buttons/Play" transform="translate(-637 -388)">
    <g transform="matrix(1, 0, 0, 1, 637, 388)" filter="url(#Path_2077)">
      <g id="Path_2077-2" data-name="Path 2077" transform="translate(36 20)" fill="#fff">
        <path d="M 63.99998474121094 127.4999694824219 C 55.42731857299805 127.4999694824219 47.11135101318359 125.8211212158203 39.28308486938477 122.5100326538086 C 35.52054977416992 120.9186172485352 31.89155197143555 118.9488525390625 28.49688529968262 116.6554718017578 C 25.13435173034668 114.3837661743164 21.97235107421875 111.7748870849609 19.09871864318848 108.901252746582 C 16.22508430480957 106.0276184082031 13.61620140075684 102.8656158447266 11.34450149536133 99.50308227539063 C 9.051117897033691 96.10842132568359 7.081351280212402 92.47941589355469 5.489934921264648 88.71688842773438 C 2.178851366043091 80.88861846923828 0.5000014305114746 72.57265472412109 0.5000014305114746 63.99998474121094 C 0.5000014305114746 55.42731857299805 2.178851366043091 47.11135101318359 5.489934921264648 39.28308486938477 C 7.081351280212402 35.52054977416992 9.051117897033691 31.89155197143555 11.34450149536133 28.49688529968262 C 13.61620140075684 25.13435173034668 16.22508430480957 21.97235107421875 19.09871864318848 19.09871864318848 C 21.97235107421875 16.22508430480957 25.13435173034668 13.61620140075684 28.49688529968262 11.34450149536133 C 31.89155197143555 9.051117897033691 35.52054977416992 7.081351280212402 39.28308486938477 5.489934921264648 C 47.11135101318359 2.178851366043091 55.42731857299805 0.5000014305114746 63.99998474121094 0.5000014305114746 C 72.57265472412109 0.5000014305114746 80.88861846923828 2.178851366043091 88.71688842773438 5.489934921264648 C 92.47941589355469 7.081351280212402 96.10842132568359 9.051117897033691 99.50308227539063 11.34450149536133 C 102.8656158447266 13.61620140075684 106.0276184082031 16.22508430480957 108.901252746582 19.09871864318848 C 111.7748870849609 21.97235107421875 114.3837661743164 25.13435173034668 116.6554718017578 28.49688529968262 C 118.9488525390625 31.89155197143555 120.9186172485352 35.52054977416992 122.5100326538086 39.28308486938477 C 125.8211212158203 47.11135101318359 127.4999694824219 55.42731857299805 127.4999694824219 63.99998474121094 C 127.4999694824219 72.57265472412109 125.8211212158203 80.88861846923828 122.5100326538086 88.71688842773438 C 120.9186172485352 92.47941589355469 118.9488525390625 96.10842132568359 116.6554718017578 99.50308227539063 C 114.3837661743164 102.8656158447266 111.7748870849609 106.0276184082031 108.901252746582 108.901252746582 C 106.0276184082031 111.7748870849609 102.8656158447266 114.3837661743164 99.50308227539063 116.6554718017578 C 96.10842132568359 118.9488525390625 92.47941589355469 120.9186172485352 88.71688842773438 122.5100326538086 C 80.88861846923828 125.8211212158203 72.57265472412109 127.4999694824219 63.99998474121094 127.4999694824219 Z" stroke="none"/>
        <path d="M 63.99998474121094 1 C 55.49459838867188 1 47.24417114257813 2.665565490722656 39.47785186767578 5.950431823730469 C 35.74507141113281 7.529281616210938 32.14469909667969 9.483497619628906 28.77678680419922 11.75881958007813 C 25.44062042236328 14.01268768310547 22.30339813232422 16.60113525390625 19.4522705078125 19.4522705078125 C 16.60113525390625 22.30339813232422 14.01268768310547 25.44062042236328 11.75881958007813 28.77678680419922 C 9.483497619628906 32.14469909667969 7.529281616210938 35.74507141113281 5.950431823730469 39.47785186767578 C 2.665565490722656 47.24417114257813 1 55.49459838867188 1 63.99998474121094 C 1 72.50537109375 2.665565490722656 80.75579833984375 5.950431823730469 88.52211761474609 C 7.529281616210938 92.25489807128906 9.483497619628906 95.85527038574219 11.75881958007813 99.22318267822266 C 14.01268768310547 102.5593490600586 16.60113525390625 105.6965637207031 19.4522705078125 108.5476989746094 C 22.30339813232422 111.3988342285156 25.44062042236328 113.9872817993164 28.77678680419922 116.2411499023438 C 32.14469909667969 118.5164642333984 35.74507141113281 120.4706878662109 39.47785186767578 122.0495376586914 C 47.24417114257813 125.3344039916992 55.49459838867188 126.9999694824219 63.99998474121094 126.9999694824219 C 72.50537109375 126.9999694824219 80.75579833984375 125.3344039916992 88.52211761474609 122.0495376586914 C 92.25489807128906 120.4706878662109 95.85527038574219 118.5164642333984 99.22318267822266 116.2411499023438 C 102.5593490600586 113.9872817993164 105.6965637207031 111.3988342285156 108.5476989746094 108.5476989746094 C 111.3988342285156 105.6965637207031 113.9872817993164 102.5593490600586 116.2411499023438 99.22318267822266 C 118.5164642333984 95.85527038574219 120.4706878662109 92.25489807128906 122.0495376586914 88.52211761474609 C 125.3344039916992 80.75579833984375 126.9999694824219 72.50537109375 126.9999694824219 63.99998474121094 C 126.9999694824219 55.49459838867188 125.3344039916992 47.24417114257813 122.0495376586914 39.47785186767578 C 120.4706878662109 35.74507141113281 118.5164642333984 32.14469909667969 116.2411499023438 28.77678680419922 C 113.9872817993164 25.44062042236328 111.3988342285156 22.30339813232422 108.5476989746094 19.4522705078125 C 105.6965637207031 16.60113525390625 102.5593490600586 14.01268768310547 99.22318267822266 11.75881958007813 C 95.85527038574219 9.483497619628906 92.25489807128906 7.529281616210938 88.52211761474609 5.950431823730469 C 80.75579833984375 2.665565490722656 72.50537109375 1 63.99998474121094 1 M 63.99998474121094 0 C 99.34619903564453 0 127.9999694824219 28.65377044677734 127.9999694824219 63.99998474121094 C 127.9999694824219 99.34619903564453 99.34619903564453 127.9999694824219 63.99998474121094 127.9999694824219 C 28.65377044677734 127.9999694824219 0 99.34619903564453 0 63.99998474121094 C 0 28.65377044677734 28.65377044677734 0 63.99998474121094 0 Z" stroke="none" fill="#e9e9e9"/>
      </g>
    </g>
    <path id="Path_5" data-name="Path 5" d="M37.973,26.117,0,0V52.234Z" transform="translate(724.485 446.126)" fill="#2699fb"/>
  </g>
</svg>
