<svg xmlns="http://www.w3.org/2000/svg" width="128" height="129.465" viewBox="0 0 128 129.465">
  <g id="Icon_Check_Circle_Rounded" data-name="Icon / Check Circle / Rounded" transform="translate(-380 -1820)">
    <rect id="Box" width="127.97" height="127.97" transform="translate(380 1820)" fill="none"/>
    <path id="Path_2034" data-name="Path 2034" d="M285.927,91.137l-22.7-22.944a6.207,6.207,0,0,1,0-8.923,6.05,6.05,0,0,1,8.827,0L290.34,77.754l43.5-43.975a6.05,6.05,0,0,1,8.827,0,6.207,6.207,0,0,1,0,8.923L294.754,91.137A6.05,6.05,0,0,1,285.927,91.137ZM302.95,0C268.272,0,239.9,28.68,239.9,63.733s28.372,63.733,63.05,63.733S366,98.785,366,63.733,337.628,0,302.95,0Z" transform="translate(142 1822)" fill="#2699fb"/>
  </g>
</svg>
