<svg xmlns="http://www.w3.org/2000/svg" xmlns:xlink="http://www.w3.org/1999/xlink" width="200" height="200" viewBox="0 0 200 200">
  <defs>
    <filter id="Path_2056" x="0" y="0" width="200" height="200" filterUnits="userSpaceOnUse">
      <feOffset dy="16" input="SourceAlpha"/>
      <feGaussianBlur stdDeviation="12" result="blur"/>
      <feFlood flood-opacity="0.161"/>
      <feComposite operator="in" in2="blur"/>
      <feComposite in="SourceGraphic"/>
    </filter>
  </defs>
  <g id="Left_Arrow" data-name="Left Arrow" transform="translate(-711 -2263.668)">
    <g transform="matrix(1, 0, 0, 1, 711, 2263.67)" filter="url(#Path_2056)">
      <g id="Path_2056-2" data-name="Path 2056" transform="translate(36 20)" fill="#fffefe">
        <path d="M 64 127.5 C 55.42733383178711 127.5 47.11136627197266 125.8211517333984 39.28308486938477 122.5100631713867 C 35.52056503295898 120.9186477661133 31.89156723022461 118.9488830566406 28.49690055847168 116.6555023193359 C 25.13434982299805 114.3837966918945 21.97234916687012 111.7749176025391 19.09871673583984 108.9012832641602 C 16.22509956359863 106.0276489257813 13.61620044708252 102.8656463623047 11.34451675415039 99.50312042236328 C 9.051116943359375 96.10845184326172 7.081349849700928 92.47944641113281 5.489933490753174 88.7169189453125 C 2.178866624832153 80.88863372802734 0.5 72.57266998291016 0.5 64 C 0.5 55.42733383178711 2.178866624832153 47.11136627197266 5.489933490753174 39.28308486938477 C 7.081349849700928 35.52056503295898 9.051116943359375 31.89156723022461 11.34451675415039 28.49690055847168 C 13.61620044708252 25.13434982299805 16.22509956359863 21.97234916687012 19.09871673583984 19.09871673583984 C 21.97234916687012 16.22509956359863 25.13434982299805 13.61620044708252 28.49690055847168 11.34451675415039 C 31.89156723022461 9.051116943359375 35.52056503295898 7.081349849700928 39.28308486938477 5.489933490753174 C 47.11136627197266 2.178866624832153 55.42733383178711 0.5 64 0.5 C 72.57266998291016 0.5 80.88863372802734 2.178866624832153 88.7169189453125 5.489933490753174 C 92.47944641113281 7.081349849700928 96.10845184326172 9.051116943359375 99.50312042236328 11.34451675415039 C 102.8656463623047 13.61620044708252 106.0276489257813 16.22509956359863 108.9012832641602 19.09871673583984 C 111.7749176025391 21.97234916687012 114.3837966918945 25.13434982299805 116.6555023193359 28.49690055847168 C 118.9488830566406 31.89156723022461 120.9186477661133 35.52056503295898 122.5100631713867 39.28308486938477 C 125.8211517333984 47.11136627197266 127.5 55.42733383178711 127.5 64 C 127.5 72.57266998291016 125.8211517333984 80.88863372802734 122.5100631713867 88.7169189453125 C 120.9186477661133 92.47944641113281 118.9488830566406 96.10845184326172 116.6555023193359 99.50312042236328 C 114.3837966918945 102.8656463623047 111.7749176025391 106.0276489257813 108.9012832641602 108.9012832641602 C 106.0276489257813 111.7749176025391 102.8656463623047 114.3837966918945 99.50312042236328 116.6555023193359 C 96.10845184326172 118.9488830566406 92.47944641113281 120.9186477661133 88.7169189453125 122.5100631713867 C 80.88863372802734 125.8211517333984 72.57266998291016 127.5 64 127.5 Z" stroke="none"/>
        <path d="M 64 1 C 55.49461364746094 1 47.24418640136719 2.665565490722656 39.47786712646484 5.950447082519531 C 35.74506378173828 7.529281616210938 32.14471435546875 9.483497619628906 28.77680206298828 11.75881958007813 C 25.44063568115234 14.01270294189453 22.30339813232422 16.60115051269531 19.45228576660156 19.45228576660156 C 16.60115051269531 22.30339813232422 14.01270294189453 25.44063568115234 11.75881958007813 28.77680206298828 C 9.483497619628906 32.14471435546875 7.529281616210938 35.74506378173828 5.950447082519531 39.47786712646484 C 2.665565490722656 47.24418640136719 1 55.49461364746094 1 64 C 1 72.50538635253906 2.665565490722656 80.75582885742188 5.950447082519531 88.52213287353516 C 7.529281616210938 92.25492858886719 9.483497619628906 95.85530090332031 11.75881958007813 99.22319793701172 C 14.01270294189453 102.5593872070313 16.60115051269531 105.6966018676758 19.45228576660156 108.5477294921875 C 22.30339813232422 111.3988494873047 25.44063568115234 113.9873199462891 28.77680206298828 116.2411804199219 C 32.14471435546875 118.5165023803711 35.74506378173828 120.4707183837891 39.47786712646484 122.0495681762695 C 47.24418640136719 125.3344345092773 55.49461364746094 127 64 127 C 72.50538635253906 127 80.75582885742188 125.3344345092773 88.52213287353516 122.0495681762695 C 92.25492858886719 120.4707183837891 95.85530090332031 118.5165023803711 99.22319793701172 116.2411804199219 C 102.5593872070313 113.9873199462891 105.6966018676758 111.3988494873047 108.5477294921875 108.5477294921875 C 111.3988494873047 105.6966018676758 113.9873199462891 102.5593872070313 116.2411804199219 99.22319793701172 C 118.5165023803711 95.85530090332031 120.4707183837891 92.25492858886719 122.0495681762695 88.52213287353516 C 125.3344345092773 80.75582885742188 127 72.50538635253906 127 64 C 127 55.49461364746094 125.3344345092773 47.24418640136719 122.0495681762695 39.47786712646484 C 120.4707183837891 35.74506378173828 118.5165023803711 32.14471435546875 116.2411804199219 28.77680206298828 C 113.9873199462891 25.44063568115234 111.3988494873047 22.30339813232422 108.5477294921875 19.45228576660156 C 105.6966018676758 16.60115051269531 102.5593872070313 14.01270294189453 99.22319793701172 11.75881958007813 C 95.85530090332031 9.483497619628906 92.25492858886719 7.529281616210938 88.52213287353516 5.950447082519531 C 80.75582885742188 2.665565490722656 72.50538635253906 1 64 1 M 64 0 C 99.34623718261719 0 128 28.65378570556641 128 64 C 128 99.34623718261719 99.34623718261719 128 64 128 C 28.65378570556641 128 0 99.34623718261719 0 64 C 0 28.65378570556641 28.65378570556641 0 64 0 Z" stroke="none" fill="#e9e9e9"/>
      </g>
    </g>
    <path id="Icon_Keyboard_Arrow_-_Up_Dark" data-name="Icon / Keyboard Arrow - Up / Dark" d="M56.533,39.467,32,14.933,7.467,39.467,0,32,32,0,64,32Z" transform="translate(785.217 2379.646) rotate(-90)" fill="#263238"/>
  </g>
</svg>
