<svg xmlns="http://www.w3.org/2000/svg" xmlns:xlink="http://www.w3.org/1999/xlink" width="74" height="74" viewBox="0 0 74 74">
  <defs>
    <linearGradient id="linear-gradient" x1="0.29" y1="1.103" x2="0.792" y2="0.073" gradientUnits="objectBoundingBox">
      <stop offset="0" stop-color="#e65100"/>
      <stop offset="1" stop-color="#ffa000"/>
      <stop offset="1" stop-color="#b3e5fc"/>
    </linearGradient>
    <filter id="Path_2082" x="0" y="0" width="74" height="74" filterUnits="userSpaceOnUse">
      <feOffset dy="8" input="SourceAlpha"/>
      <feGaussianBlur stdDeviation="5" result="blur"/>
      <feFlood flood-opacity="0.141"/>
      <feComposite operator="in" in2="blur"/>
      <feComposite in="SourceGraphic"/>
    </filter>
  </defs>
  <g id="Lesson" transform="translate(-281 -4402)">
    <g transform="matrix(1, 0, 0, 1, 281, 4402)" filter="url(#Path_2082)">
      <path id="Path_2082-2" data-name="Path 2082" d="M22,0A22,22,0,1,1,0,22,22,22,0,0,1,22,0Z" transform="translate(15 7)" fill="url(#linear-gradient)"/>
    </g>
    <g id="open-book" transform="translate(306 4392.695)">
      <g id="Group_1395" data-name="Group 1395" transform="translate(0 28.39)">
        <path id="Path_2070" data-name="Path 2070" d="M23.195,30.964H21.512V29.256a.8.8,0,0,0-.686-.781,12.609,12.609,0,0,0-3.681.109A8.309,8.309,0,0,0,12,31.408a8.309,8.309,0,0,0-5.145-2.824,12.612,12.612,0,0,0-3.681-.109.8.8,0,0,0-.686.781v1.708H.805a.8.8,0,0,0-.805.79V46.635a.785.785,0,0,0,.339.644.818.818,0,0,0,.731.1c.06-.021,6.1-2.04,10.6-.027a.82.82,0,0,0,.669,0c4.488-2.007,10.535.007,10.6.027a.819.819,0,0,0,.731-.1A.785.785,0,0,0,24,46.635V31.753A.8.8,0,0,0,23.195,30.964ZM1.611,45.578V32.543h.877V43.06a.784.784,0,0,0,.279.6.817.817,0,0,0,.644.184,9.892,9.892,0,0,1,6.1,1.242A19.982,19.982,0,0,0,1.611,45.578Zm9.584-1.207a8.753,8.753,0,0,0-4.34-1.984,12.883,12.883,0,0,0-2.245-.194c-.185,0-.357,0-.512.01V29.981h0c1.548-.068,5.313.094,7.1,3.058Zm1.611-11.333c1.777-2.951,5.548-3.121,7.1-3.056V42.2a13.015,13.015,0,0,0-2.757.184,8.752,8.752,0,0,0-4.34,1.984V33.039Zm1.682,12.045a9.89,9.89,0,0,1,6.1-1.243.816.816,0,0,0,.645-.183.783.783,0,0,0,.28-.6V32.543h.877V45.578A19.978,19.978,0,0,0,14.487,45.084Z" transform="translate(0 -28.39)" fill="#fafafa"/>
      </g>
    </g>
  </g>
</svg>
